<?xml version="1.0" encoding="UTF-8"?>
<svg xmlns="http://www.w3.org/2000/svg" xmlns:xlink="http://www.w3.org/1999/xlink" width="32px" height="32px" viewBox="0 0 32 32" version="1.1">
<g id="surface1">
<path style=" stroke:none;fill-rule:nonzero;fill:rgb(25.490196%,25.490196%,25.490196%);fill-opacity:1;" d="M 15.699219 12.898438 C 16.800781 12.898438 17.601562 12.699219 18.199219 12.199219 C 18.800781 11.699219 19.101562 11 19.101562 10.101562 C 19.101562 9.199219 18.800781 8.5 18.199219 8 C 17.601562 7.398438 16.800781 7.199219 15.699219 7.199219 L 11.800781 7.199219 L 11.800781 12.898438 Z M 15.898438 24.800781 C 17.300781 24.800781 18.398438 24.5 19.101562 23.898438 C 19.800781 23.300781 20.199219 22.398438 20.199219 21.199219 C 20.199219 20 19.800781 19.101562 19.101562 18.601562 C 18.398438 18 17.398438 17.699219 15.898438 17.699219 L 11.800781 17.699219 L 11.800781 24.800781 Z M 22.398438 15 C 23.898438 15.398438 25.101562 16.199219 25.898438 17.398438 C 26.699219 18.601562 27.101562 20 27.101562 21.699219 C 27.101562 24.300781 26.199219 26.300781 24.398438 27.601562 C 22.601562 28.898438 19.898438 29.5 16.300781 29.5 L 4.699219 29.5 L 4.699219 2.398438 L 15.199219 2.398438 C 19 2.398438 21.699219 3 23.398438 4.101562 C 25.101562 5.199219 25.898438 7.101562 25.898438 9.601562 C 25.898438 10.898438 25.601562 12 25 13 C 24.5 13.898438 23.601562 14.601562 22.398438 15 Z M 22.398438 15 "/>
</g>
</svg>
